<svg width="18" height="18" viewBox="0 0 18 18" fill="none" xmlns="http://www.w3.org/2000/svg">
<circle cx="9" cy="9" r="9" fill="#397EE5"/>
<path d="M9.46154 5.86047C9.96923 5.86047 10.3846 5.44186 10.3846 4.93023C10.3846 4.4186 9.96923 4 9.46154 4C8.95385 4 8.53846 4.4186 8.53846 4.93023C8.53846 5.44186 8.95385 5.86047 9.46154 5.86047ZM7.75385 7.44186L6.46154 14H7.43077L8.26154 10.2791L9.23077 11.2093V14H10.1538V10.5116L9.18462 9.5814L9.46154 8.18605C10.0615 8.88372 10.9846 9.34884 12 9.34884V8.4186C11.1231 8.4186 10.3846 7.95349 10.0154 7.30233L9.55385 6.55814C9.36923 6.27907 9.09231 6.09302 8.76923 6.09302C8.63077 6.09302 8.53846 6.13953 8.4 6.13953L6 7.16279V9.34884H6.92308V7.76744L7.75385 7.44186Z" fill="white"/>
</svg>
