<svg width="18" height="18" viewBox="0 0 18 18" fill="none" xmlns="http://www.w3.org/2000/svg">
<circle cx="9" cy="9" r="9" fill="#397EE5"/>
<path fill-rule="evenodd" clip-rule="evenodd" d="M9.42857 4.73545V3H8.57143V4.73545C6.54668 4.93648 4.93648 6.54668 4.73545 8.57143H3V9.42857H4.73545C4.93648 11.4533 6.54668 13.0635 8.57143 13.2646V15L9.42857 15V13.2646C11.4533 13.0635 13.0635 11.4533 13.2646 9.42857H15V8.57143H13.2646C13.0635 6.54668 11.4533 4.93648 9.42857 4.73545ZM12.2857 9C12.2857 10.8146 10.8146 12.2857 9 12.2857C7.18535 12.2857 5.71429 10.8146 5.71429 9C5.71429 7.18535 7.18535 5.71429 9 5.71429C10.8146 5.71429 12.2857 7.18535 12.2857 9ZM9 10.7143C9.94677 10.7143 10.7143 9.94677 10.7143 9C10.7143 8.05323 9.94677 7.28571 9 7.28571C8.05323 7.28571 7.28571 8.05323 7.28571 9C7.28571 9.94677 8.05323 10.7143 9 10.7143Z" fill="white"/>
</svg>
