<svg width="17" height="25" viewBox="0 0 17 25" fill="none" xmlns="http://www.w3.org/2000/svg">
<mask id="path-1-inside-1" fill="white">
<path fill-rule="evenodd" clip-rule="evenodd" d="M15.0913 12.7906C15.927 11.5047 16.4302 9.98295 16.4302 8.35202C16.4302 3.73933 12.7522 0 8.2151 0C3.67803 0 0 3.73933 0 8.35202C0 9.85375 0.356478 11.2629 1.00475 12.4806C1.01338 12.4982 1.02259 12.5157 1.03239 12.5331L1.04935 12.5633C1.08084 12.6208 1.11299 12.6779 1.14579 12.7346L8.04971 25L15.0913 12.7906Z"/>
</mask>
<path d="M15.0913 12.7906L13.8336 11.9732L13.8118 12.0066L13.7919 12.0412L15.0913 12.7906ZM1.00475 12.4806L2.35131 11.8197L2.34042 11.7975L2.3288 11.7757L1.00475 12.4806ZM1.03239 12.5331L2.33954 11.7973L2.33953 11.7973L1.03239 12.5331ZM1.04935 12.5633L2.36526 11.8433L2.36093 11.8353L2.35651 11.8275L1.04935 12.5633ZM1.14579 12.7346L2.45294 11.9988L2.44851 11.9909L2.44399 11.9831L1.14579 12.7346ZM8.04971 25L6.74256 25.7358L8.03386 28.0299L9.34909 25.7494L8.04971 25ZM14.9302 8.35202C14.9302 9.66909 14.5246 10.9099 13.8336 11.9732L16.349 13.608C17.3294 12.0995 17.9302 10.2968 17.9302 8.35202H14.9302ZM8.2151 1.5C11.9005 1.5 14.9302 4.54428 14.9302 8.35202H17.9302C17.9302 2.93437 13.6039 -1.5 8.2151 -1.5V1.5ZM1.5 8.35202C1.5 4.54428 4.52973 1.5 8.2151 1.5V-1.5C2.82632 -1.5 -1.5 2.93437 -1.5 8.35202H1.5ZM2.3288 11.7757C1.7995 10.7815 1.5 9.61534 1.5 8.35202H-1.5C-1.5 10.0922 -1.08654 11.7444 -0.319308 13.1855L2.3288 11.7757ZM2.33953 11.7973C2.34354 11.8044 2.34747 11.8119 2.35131 11.8197L-0.341812 13.1415C-0.320707 13.1845 -0.29835 13.227 -0.274761 13.2689L2.33953 11.7973ZM2.35651 11.8275L2.33954 11.7973L-0.274768 13.2689L-0.257801 13.299L2.35651 11.8275ZM2.44399 11.9831C2.41723 11.9369 2.39098 11.8903 2.36526 11.8433L-0.266547 13.2833C-0.229294 13.3513 -0.191247 13.4189 -0.152415 13.486L2.44399 11.9831ZM9.35686 24.2642L2.45294 11.9988L-0.161366 13.4703L6.74256 25.7358L9.35686 24.2642ZM13.7919 12.0412L6.75032 24.2506L9.34909 25.7494L16.3907 13.54L13.7919 12.0412Z" fill="black" mask="url(#path-1-inside-1)"/>
<path d="M10.7705 8.33331C10.7705 9.79088 9.61041 10.9583 8.19672 10.9583C6.78302 10.9583 5.62295 9.79088 5.62295 8.33331C5.62295 6.87574 6.78302 5.70831 8.19672 5.70831C9.61041 5.70831 10.7705 6.87574 10.7705 8.33331Z" fill="black" stroke="black"/>
</svg>
